<svg width="31" height="30" viewBox="0 0 31 30" fill="none" xmlns="http://www.w3.org/2000/svg">
<rect x="0.422241" width="30" height="30" rx="15" fill="white"/>
<g clip-path="url(#clip0_3_1476)">
<path d="M12.4227 15C12.4227 13.3432 13.7655 11.9998 15.4222 11.9998C17.079 11.9998 18.4225 13.3432 18.4225 15C18.4225 16.6568 17.079 18.0002 15.4222 18.0002C13.7655 18.0002 12.4227 16.6568 12.4227 15ZM10.8008 15C10.8008 17.5524 12.8698 19.6214 15.4222 19.6214C17.9747 19.6214 20.0436 17.5524 20.0436 15C20.0436 12.4476 17.9747 10.3786 15.4222 10.3786C12.8698 10.3786 10.8008 12.4476 10.8008 15ZM19.1466 10.1954C19.1466 10.7915 19.63 11.2757 20.2268 11.2757C20.823 11.2757 21.3071 10.7915 21.3071 10.1954C21.3071 9.59927 20.8237 9.11583 20.2268 9.11583C19.63 9.11583 19.1466 9.59927 19.1466 10.1954ZM11.7859 22.3258C10.9084 22.2858 10.4315 22.1397 10.1146 22.0161C9.69437 21.8525 9.39486 21.6577 9.07935 21.3429C8.76457 21.0281 8.56901 20.7286 8.40617 20.3084C8.28258 19.9914 8.13646 19.5145 8.09647 18.6371C8.05286 17.6884 8.04413 17.4034 8.04413 15C8.04413 12.5966 8.05358 12.3124 8.09647 11.3629C8.13646 10.4855 8.28331 10.0093 8.40617 9.6916C8.56974 9.27141 8.76457 8.97189 9.07935 8.65638C9.39413 8.3416 9.69365 8.14604 10.1146 7.9832C10.4315 7.85961 10.9084 7.71349 11.7859 7.67351C12.7346 7.62989 13.0196 7.62116 15.4222 7.62116C17.8256 7.62116 18.1099 7.63061 19.0593 7.67351C19.9368 7.71349 20.413 7.86034 20.7306 7.9832C21.1508 8.14604 21.4504 8.3416 21.7659 8.65638C22.0806 8.97116 22.2755 9.27141 22.439 9.6916C22.5626 10.0086 22.7088 10.4855 22.7487 11.3629C22.7924 12.3124 22.8011 12.5966 22.8011 15C22.8011 17.4027 22.7924 17.6876 22.7487 18.6371C22.7088 19.5145 22.5619 19.9914 22.439 20.3084C22.2755 20.7286 22.0806 21.0281 21.7659 21.3429C21.4511 21.6577 21.1508 21.8525 20.7306 22.0161C20.4137 22.1397 19.9368 22.2858 19.0593 22.3258C18.1106 22.3694 17.8256 22.3781 15.4222 22.3781C13.0196 22.3781 12.7346 22.3694 11.7859 22.3258ZM11.7117 6.05452C10.7536 6.09814 10.0993 6.25008 9.52717 6.47254C8.93541 6.70226 8.43379 7.0105 7.9329 7.51066C7.43274 8.01082 7.1245 8.51244 6.89478 9.10493C6.67232 9.67706 6.52038 10.3313 6.47676 11.2895C6.43242 12.2491 6.42224 12.5559 6.42224 15C6.42224 17.4441 6.43242 17.7509 6.47676 18.7105C6.52038 19.6687 6.67232 20.3229 6.89478 20.8951C7.1245 21.4868 7.43202 21.9892 7.9329 22.4893C8.43307 22.9895 8.93468 23.297 9.52717 23.5275C10.1 23.7499 10.7536 23.9019 11.7117 23.9455C12.6721 23.9891 12.9781 24 15.4222 24C17.8671 24 18.1731 23.9898 19.1327 23.9455C20.0909 23.9019 20.7452 23.7499 21.3173 23.5275C21.9091 23.297 22.4107 22.9895 22.9116 22.4893C23.4117 21.9892 23.7193 21.4868 23.9497 20.8951C24.1722 20.3229 24.3248 19.6687 24.3677 18.7105C24.4113 17.7502 24.4215 17.4441 24.4215 15C24.4215 12.5559 24.4113 12.2491 24.3677 11.2895C24.3241 10.3313 24.1722 9.67706 23.9497 9.10493C23.7193 8.51317 23.4117 8.01155 22.9116 7.51066C22.4114 7.0105 21.9091 6.70226 21.318 6.47254C20.7452 6.25008 20.0909 6.09742 19.1335 6.05452C18.1739 6.0109 17.8671 6 15.423 6C12.9781 6 12.6721 6.01018 11.7117 6.05452Z" fill="#5E5E5E"/>
</g>
<defs>
<clipPath id="clip0_3_1476">
<rect width="18" height="18" fill="white" transform="translate(6.42224 6)"/>
</clipPath>
</defs>
</svg>
