<svg width="28" height="28" viewBox="0 0 28 28" fill="none" xmlns="http://www.w3.org/2000/svg">
<rect width="27.4222" height="28" rx="13.7111" fill="white"/>
<path d="M18.8222 7.13333C18.0627 6.26625 17.6441 5.1527 17.6444 4H14.2111V17.7778C14.1846 18.5234 13.8699 19.2296 13.3331 19.7477C12.7963 20.2658 12.0794 20.5555 11.3333 20.5556C9.75556 20.5556 8.44444 19.2667 8.44444 17.6667C8.44444 15.7556 10.2889 14.3222 12.1889 14.9111V11.4C8.35556 10.8889 5 13.8667 5 17.6667C5 21.3667 8.06667 24 11.3222 24C14.8111 24 17.6444 21.1667 17.6444 17.6667V10.6778C19.0367 11.6776 20.7082 12.2141 22.4222 12.2111V8.77778C22.4222 8.77778 20.3333 8.87778 18.8222 7.13333Z" fill="#5E5E5E"/>
</svg>
