<svg viewBox="0 0 870 200" fill="currentColor" xmlns="http://www.w3.org/2000/svg">
<path d="M148.133 199.489C135.66 200.738 121.183 199.277 106.706 199.489C96.4735 199.63 86.8536 197.555 78.1297 191.708C70.7497 186.757 62.9689 182.418 55.4711 177.632C52.9718 176.029 51.0148 175.958 48.4448 177.538C38.5184 183.574 28.4741 189.397 18.4534 195.268C17.0151 196.094 15.5061 197.532 13.7378 196.306C12.0637 195.15 13.054 193.406 13.2898 191.92C13.7142 189.28 13.8085 186.898 11.2149 185.106C9.63515 183.998 9.87094 182.583 10.484 180.626C14.9874 166.432 19.2079 152.12 23.5227 137.856C24.3951 134.979 22.9097 134.578 20.6226 135.12C16.0013 136.205 11.3092 136.724 6.54642 136.795C2.49097 136.865 1.71289 135.734 2.93896 131.843C3.36336 130.476 3.88208 129.132 4.4008 127.811C5.39109 125.265 7.13587 122.836 2.06657 122.435C-0.715656 122.223 0.816924 119.394 1.33564 117.838C4.75448 107.487 8.07899 97.1125 10.8612 86.5731C12.1109 81.8574 13.5727 77.2125 14.8459 72.4969C15.2703 70.8936 15.7655 69.8326 17.7225 70.3277C26.187 72.3554 34.5573 70.7757 42.8096 69.2431C58.607 66.3194 74.3572 65.2584 90.2489 67.9935C94.7051 68.748 98.7606 70.4692 102.769 72.4026C104.372 73.1807 105.881 73.6287 106.093 71.0351C107.296 56.2987 115.477 45.1698 124.838 34.654C132.1 26.5195 139.433 18.4558 146.53 10.2034C148.652 7.72772 150.161 4.70971 151.976 1.97465C152.495 1.19657 152.637 -0.170967 153.933 0.0176581C155.112 0.206283 155.207 1.4795 155.466 2.37547C157.895 10.7693 160.229 19.2103 162.634 27.6041C164.284 33.3807 166.123 39.1338 167.656 44.9576C168.481 48.0935 170.155 48.5887 173.055 47.952C181.048 46.2544 189.089 44.8397 197.081 43.1657C199.628 42.647 201.113 43.4722 202.292 45.7121C211.747 63.7494 221.744 81.5038 232.732 98.6451C233.934 100.508 234.429 102.276 232.472 103.997C231.647 104.705 231.435 105.789 231.671 106.78C232.472 110.01 232.425 112.297 228.04 112.627C226.083 112.768 227.427 114.702 227.945 115.692C230.633 120.761 233.439 125.76 236.127 130.829C238.98 136.182 239.499 142.288 241.479 147.947C242.517 150.894 239.546 151.295 237.353 151.319C229.902 151.366 222.428 151.319 214.977 151.248C212.054 151.224 210.332 152.851 207.951 154.36C201.561 158.486 203.4 163.721 203.636 169.073C203.683 170.134 203.565 170.959 204.839 171.454C208.611 172.963 207.362 175.085 205.192 176.854C201.113 180.202 200.878 184.87 200.524 189.515C200.406 191.119 201.561 192.085 203 192.698C203.966 193.123 205.522 193.146 205.098 194.82C204.768 196.07 203.495 196.518 202.387 196.659C198.968 197.06 195.549 197.273 192.13 197.555C178.125 198.711 164.143 200.102 148.062 199.536L148.133 199.489ZM224.479 117.413C219.245 115.716 213.798 115.268 208.375 115.126C202.198 114.961 195.973 113.782 189.961 114.136C179.846 114.749 169.849 116.965 159.828 118.687C151.953 120.03 144.196 121.846 136.651 124.581C137.217 124.84 137.759 124.911 138.301 124.84C157.942 122.035 177.488 123.638 196.94 126.562C207.998 128.212 218.962 130.358 229.997 132.22C231.223 132.433 233.911 133.022 232.897 130.9C230.586 126.161 229.714 120.384 224.526 117.39L224.479 117.413ZM90.0602 161.41C89.3057 163.037 89.3529 164.782 89.3529 166.479C89.3529 171.619 90.9091 173.152 96.0019 173.199C129.719 173.624 163.412 172.398 197.129 171.407C199.746 171.337 201.113 170.676 201.066 167.729C201.019 164.923 200.547 163.226 197.129 163.013C186.377 162.353 175.625 162.4 164.874 162.306C163.058 162.306 161.196 163.273 158.743 162.235C161.879 160.467 164.803 161.575 167.632 160.844C165.888 159.995 163.978 161.292 162.162 159.406C165.699 157.873 169.283 158.887 172.089 158.345C169.943 153.394 165.534 155.893 161.926 155.657C156.786 155.327 151.623 155.563 146.176 155.563C149.996 156.836 153.792 156.577 157.447 157.59C151.67 157.59 146.058 158.887 140.447 159.241C128.304 159.995 116.091 159.878 103.924 159.689C99.7744 159.618 95.5068 161.787 91.3335 159.288C90.6261 158.864 90.3432 160.373 90.2253 161.198L90.0838 161.363L90.0602 161.41ZM102.439 75.4913C98.8313 72.6619 94.7051 71.1058 90.3196 70.257C75.7483 67.4748 61.2006 68.0171 46.7 70.705C37.9525 72.3319 29.1814 73.6994 20.2453 73.4636C19.0428 73.44 17.4395 72.6855 17.2509 74.7368C17.0858 76.5288 18.6656 76.5523 19.8445 77.0003C22.1316 77.8963 24.9374 76.8117 27.4131 79.0281C24.4658 79.9476 22.108 78.6036 19.7266 78.863C18.4298 79.0045 16.3078 77.967 16.1191 79.924C15.9777 81.5038 18.0997 81.0322 19.2786 81.2444C21.1884 81.5981 23.1219 81.8338 25.3382 82.1875C21.7543 85.3941 16.3549 80.0183 13.6906 84.8047C17.746 85.795 21.5421 86.6909 25.7155 87.7048C24.6073 88.8601 23.8764 88.6244 23.169 88.5772C15.2703 88.0113 15.4354 88.0585 13.054 95.4856C10.6726 102.96 8.64487 110.623 4.44796 117.39C3.99997 118.121 3.52841 119.017 4.16502 119.795C5.03741 120.879 6.26348 120.219 7.39523 120.148C22.1787 119.394 36.4907 114.985 51.2506 114.16C63.1104 113.499 74.9466 112.58 86.8536 114.348C96.8507 115.834 106.471 118.215 116.303 123.402C114.652 115.574 113.261 108.619 111.729 101.687C110.267 95.0612 110.785 87.2333 100.953 85.4413C103.806 83.8144 105.693 86.7381 108.168 84.9226C103.146 79.7354 96.6857 78.3207 90.3196 76.6938C96.0019 76.458 101.071 78.4622 107.131 81.0794C104.16 77.5662 100.317 77.4012 97.3695 74.0531C99.7744 74.7133 101.118 75.0905 102.462 75.4442L102.439 75.4913ZM139.574 25.0341C142.286 21.8274 145.115 18.6916 147.709 15.3906C152.165 9.66112 152.566 8.67084 153.108 3.8609C151.387 7.65698 149.289 10.5571 146.931 13.245C137.877 23.6194 128.728 33.8995 119.839 44.4153C112.436 53.1864 109.701 60.7786 108.97 72.4969C110.715 69.0781 111.375 65.0698 114.582 62.429C113.733 65.282 112.507 67.9935 111.469 70.7521C109.418 76.2694 109.465 76.2694 110.149 78.863C113.45 69.5025 113.733 68.9838 116.562 67.1447C110.503 81.6452 110.007 83.9559 112.106 88.6008C113.615 81.6688 115.76 75.3027 120.547 70.0919C116.821 77.6841 113.473 85.347 113.002 93.9294C114.629 88.8837 115.949 83.6965 119.651 79.5939C118.024 85.6064 114.959 91.1708 114.723 97.5133C115.713 96.0279 116.279 94.4246 116.986 92.892C117.647 91.5009 117.906 89.709 119.91 89.0252C119.91 89.709 120.028 90.0626 119.91 90.2513C113.002 100.814 115.69 111.684 118.873 122.553C119.179 123.614 119.226 125.053 120.594 125.265C121.702 125.43 122.268 124.298 122.857 123.496C124.814 120.832 126.819 118.215 128.611 115.456C139.692 98.5272 152.967 83.5079 168.528 70.6107C171.9 67.8284 172.607 65.5178 171.169 61.5802C165.18 45.1227 160.37 28.3114 156.055 11.3352C155.82 10.4156 155.749 9.30745 154.311 8.9302C150.491 15.202 146.058 21.0022 139.551 25.0105L139.574 25.0341ZM153.556 108.359C147.143 112.462 139.409 114.112 133.609 119.347C139.315 117.956 144.879 116.234 150.467 114.56C166.972 109.609 183.713 105.648 200.925 104.115C209.484 103.361 218.09 102.983 226.648 102.158C231.671 101.687 231.741 101.215 229.195 97.1125C223.513 87.9878 217.901 78.7923 212.808 69.3139C209.059 62.3583 205.216 55.4735 201.42 48.5651C200.241 46.443 198.968 44.604 196.044 45.6414C191.8 47.1268 187.344 47.339 182.958 48.0228C179.068 48.6358 175.225 49.7204 171.358 50.5928C174.211 51.7481 176.639 49.461 179.846 50.5928C179.044 51.1351 178.643 51.5359 178.148 51.701C173.448 53.3829 171.869 56.6602 173.409 61.5331C173.621 62.2168 173.786 62.9242 174.069 63.5844C175.342 66.4845 175.649 69.1017 171.994 70.9408C176.498 69.809 180.624 68.2764 185.057 68.6772C182.534 69.8326 179.822 70.257 177.347 71.2944C173.951 72.7327 169.849 72.4026 166.996 74.8783C157.329 83.2486 148.369 92.3497 140.518 102.465C139.81 103.361 139.291 104.398 138.089 106.284C149.171 99.6118 159.687 94.7547 171.358 92.7505C157.706 97.9849 143.701 102.512 133.161 113.499C144.361 105.907 156.503 100.531 169.825 97.9849C159.521 103.101 147.709 105.105 137.759 113.829C143.724 111.542 148.11 108.383 153.533 108.406L153.556 108.359ZM103.005 125.713C98.5955 124.062 94.5637 124.723 90.4611 125.736C80.8176 128.141 71.6929 131.937 62.6624 135.969C61.342 136.559 60.116 137.596 57.4281 137.172C67.3781 131.843 76.9508 128.236 86.5707 124.699C77.2809 125.477 69.0285 129.674 60.3046 132.338C64.9495 128.849 70.5375 127.41 75.5597 124.77C66.3878 126.066 58.4891 130.994 49.6473 133.423C52.0758 132.079 54.4808 130.759 56.9094 129.415C52.6653 130.334 48.657 131.702 44.6487 133.046C43.7292 133.352 42.6681 134.225 41.8429 133.352C40.7347 132.197 43.2576 131.843 42.6446 130.358C38.6127 131.254 34.5337 132.032 30.549 133.116C27.9554 133.824 27.8846 134.342 28.9928 137.125C29.4644 138.351 23.8292 155.987 22.5796 156.199C19.0664 156.789 19.8681 159.595 18.9957 161.599C20.6933 162.471 21.6129 160.043 23.1219 161.08C21.047 165.018 22.9804 165.301 26.6822 164.145C24.0414 166.81 21.3299 168.271 18.4534 169.497C16.968 170.134 15.2468 171.006 15.9777 172.893C16.7086 174.779 15.624 176.524 16.1427 178.716C24.4894 174.425 32.1523 169.474 39.4144 163.909C60.3753 147.876 81.9258 133.022 109.159 128.259C101.731 126.986 94.9173 129.792 88.0561 128.707C92.7246 126.066 97.8882 126.868 103.005 125.689V125.713ZM158.437 187.323C158.437 186.969 158.413 186.592 158.39 186.238C170.792 185.814 183.147 184.729 195.572 185.106C181.048 182.277 166.406 185.861 151.882 184.21C167.255 181.994 182.746 182.89 198.166 181.97C178.077 180.697 158.036 182.819 137.971 183.078C137.971 182.536 137.924 181.994 137.9 181.452C157.612 180.603 177.323 179.73 197.034 178.882C161.879 179.825 126.701 179.683 91.5457 180.108C91.5457 180.839 91.5457 181.569 91.5457 182.3H131.911C131.911 182.819 131.911 183.338 131.888 183.833C130.072 183.833 128.233 183.927 126.418 183.833C115.525 183.243 104.655 183.833 93.762 184.022C89.3293 184.092 88.4805 185.46 90.131 189.586C92.0408 194.325 95.9548 195.598 100.553 195.551C124.201 195.292 147.874 195.033 171.523 194.679C176.097 194.608 180.718 194.325 185.222 193.594C189.018 193.005 193.026 193.665 196.681 192.038C187.202 191.755 177.747 191.779 168.269 191.755C166.854 191.755 165.392 191.684 164.001 191.402C163.435 191.284 162.634 190.553 162.563 190.034C162.422 188.855 163.553 188.855 164.379 188.784C165.51 188.714 166.666 188.761 167.821 188.714C176.781 188.36 185.764 187.983 194.724 187.629C194.724 187.535 194.724 187.464 194.724 187.37H158.366L158.437 187.323ZM37.1037 124.463C37.5517 124.18 37.9761 123.709 38.4712 123.614C50.1188 121.257 61.7429 118.569 73.7913 119.512C75.4182 119.63 77.7053 121.162 78.8842 118.215C79.0492 117.791 81.0298 118.026 82.1851 118.026C84.6137 118.073 87.0658 118.026 89.4944 118.309C91.9229 118.592 94.3043 119.111 96.7093 118.356C68.6984 117.06 40.5933 114.065 13.1719 122.954C13.8321 124.133 15.9777 122.742 16.6143 124.416C16.3078 125.949 13.5255 125.336 14.115 125.878C16.6379 128.212 14.2329 127.67 13.1247 127.976C12.5117 128.141 11.6393 127.788 11.3799 128.849C12.158 129.132 12.9125 129.391 13.6906 129.674C13.3133 130.641 12.4881 130.428 11.8751 130.57C10.3897 130.947 8.80992 131.654 9.18717 133.329C9.588 135.003 11.3328 134.248 12.5117 134.059C34.2036 130.405 55.4004 124.086 77.3516 121.728C63.7706 120.125 50.4961 122.6 37.0801 124.44L37.1037 124.463ZM180.765 131.277C180.765 131.654 180.765 132.055 180.765 132.433H141.744C141.744 132.833 141.744 133.234 141.767 133.635C148.345 133.635 154.947 133.635 161.526 133.635C168.128 133.659 174.777 133.281 181.308 133.918C187.627 134.531 194.181 133.564 200.312 136.158C190.197 136.276 180.082 135.003 169.967 136.323C175.295 137.195 180.718 137.03 185.929 138.869H155.277C171.876 142.335 189.796 141.652 207.81 142.005C206.819 141.322 205.287 142.335 204.792 140.473C207.079 139.6 209.436 140.119 211.511 140.52C218.231 141.817 225.611 139.506 231.765 144.08C232.496 144.622 233.793 145.353 234.429 144.222C235.137 142.925 234.052 141.77 233.18 140.85C232.142 139.742 230.798 140.237 229.525 140.449C223.465 141.416 217.571 140.119 211.653 138.799H218.868C216.84 137.95 214.553 138.492 212.266 136.37C219.009 135.686 224.951 138.351 231.411 137.832C200.878 130.334 170.367 127.623 138.278 130.664C153.155 131.678 166.972 129.792 180.718 131.277H180.765ZM91.6871 135.899C83.812 138.068 81.6193 139.365 73.862 145.471C71.9758 146.957 69.6651 147.923 67.5195 149.079C57.7817 154.266 49.8595 161.929 40.8055 168.036C43.0218 167.753 44.5072 165.631 47.0065 165.961C46.7707 167.305 45.804 167.493 45.191 168.083C44.6723 168.578 44.743 169.073 45.191 169.568C45.639 170.04 46.4407 170.252 46.7 169.757C48.9164 165.348 53.9385 166.479 57.4045 164.357C64.4308 160.066 69.4529 153.016 77.3988 150.116C77.8468 149.951 78.5305 149.126 78.4598 148.984C76.7622 146.108 79.6623 145.99 80.8883 145.165C86.0048 141.652 91.5221 138.775 97.0158 135.781C94.5165 136.747 92.0408 137.691 89.5415 138.657C89.4472 138.421 89.3529 138.209 89.2586 137.973C89.9659 137.384 90.6497 136.818 91.7107 135.922L91.6871 135.899ZM56.7207 174.614C67.213 179.259 74.6873 188.926 86.1463 192.58C85.6511 189.209 84.26 186.474 85.2503 183.314C85.9105 181.192 88.9756 179.518 87.6081 177.443C86.4999 175.746 83.7649 175.133 81.8079 173.977C80.4404 173.176 79.1907 172.185 77.7996 171.454C76.7386 170.889 75.819 169.356 74.5222 170.04C72.5888 171.054 75.7719 172.303 74.6166 173.765C73.0368 173.011 71.5278 172.28 69.335 171.219C71.0562 173.341 73.2726 173.812 74.1686 176.665C70.3253 174.402 67.1187 172.515 63.8885 170.606C66.9772 174.213 71.6457 175.651 74.6637 179.33C69.5944 177.986 65.7512 174.213 60.4225 173.176C64.9024 176.005 69.4058 178.834 73.8856 181.664C67.5431 180.438 62.7332 176.241 56.7443 174.637L56.7207 174.614ZM113.261 135.734C111.045 136.936 109.677 137.62 108.357 138.398C101.189 142.618 94.1157 146.98 86.8772 151.059C64.9259 163.485 41.9844 174.142 20.9055 188.124C18.9957 189.397 14.8695 189.94 16.2842 192.958C16.9444 194.372 20.434 191.684 22.4145 190.482C51.1799 173.246 79.9452 156.034 109.347 139.907C110.691 139.176 112.224 138.586 113.261 135.71V135.734ZM146.2 118.663C159.71 116.517 173.126 113.617 186.778 111.896C200.5 110.175 214.294 109.467 228.134 108.949C219.622 106.709 211.063 108.1 202.481 108.477C210.521 105.2 219.08 106.167 227.427 105.53C216.675 102.535 169.943 110.128 146.2 118.663ZM95.6483 151.554C132.312 151.814 168.646 151.083 204.98 151.979C172.489 149.55 139.928 149.88 107.131 149.409C108.027 147.664 109.63 148.819 110.62 147.735C105.315 147.782 100.01 146.792 95.6483 151.531V151.554ZM235.325 148.065C209.201 146.391 183.052 147.24 156.928 146.886C183.052 148.984 209.201 148.395 235.325 148.065ZM85.3918 157.166C83.0104 160.774 81.3127 163.579 77.2101 162.235C76.102 161.882 74.2865 162.943 73.697 164.31C72.9897 165.961 74.758 166.432 75.7011 167.14C77.5167 168.531 79.4501 169.804 81.3835 171.006C82.7746 171.879 84.0478 171.902 83.647 169.71C82.9396 165.749 84.2364 162.07 85.3682 157.142L85.3918 157.166Z" fill="currentColor"/>
<path d="M62.6152 108.454C79.733 107.039 96.4027 108.053 111.257 117.979C103.759 114.466 95.8369 112.085 87.6317 110.599C79.3557 109.09 70.9619 108.878 62.6152 108.454Z" fill="currentColor"/>
<path d="M90.2018 161.269C101.566 160.844 112.931 159.571 124.319 161.269C115.36 161.269 106.518 162.895 97.5346 162.754C101.425 163.155 105.315 163.556 109.206 163.98C109.206 164.428 109.206 164.876 109.206 165.324C103.335 165.324 97.4638 165.513 91.6165 165.206C89.8717 165.112 91.6636 162.306 90.0603 161.434L90.2018 161.269Z" fill="currentColor"/>
<path d="M152.637 191.59C135.354 190.482 118.095 192.981 100.765 191.732C118.024 190.011 135.307 190.411 152.637 191.59Z" fill="currentColor"/>
<path d="M224.456 117.413C224.527 120.644 221.226 120.29 220.094 120.196C207.527 119.064 194.913 119.394 182.345 118.828C182.157 118.828 182.015 118.451 181.567 117.932C184.585 116.777 187.556 117.248 190.409 117.248C201.774 117.248 213.139 115.268 224.48 117.437L224.456 117.413Z" fill="currentColor"/>
<path d="M350.693 196.753H341.545L334.613 137.124L318.415 191.59C317.212 195.527 315.114 197.484 312.096 197.484C309.078 197.484 306.626 194.962 305.164 189.916L289.815 136.7L282.553 196.753H273.499L280.973 135.12C281.68 129.084 284.486 126.066 289.39 126.066C293.729 126.066 296.676 128.73 298.232 134.059L312.12 182.866L326.431 134.908C328.176 129.013 331.312 126.066 335.792 126.066C338.527 126.066 340.555 126.939 341.899 128.707C342.889 129.98 343.549 132.22 343.903 135.427L350.741 196.73L350.693 196.753Z" fill="currentColor"/>
<path d="M411.879 196.754H402.636V166.456H376.016V158.463H402.636V154.054C402.636 147.476 401.764 142.831 399.995 140.166C397.119 135.899 393.087 133.753 387.9 133.753C382.217 133.753 377.95 136.064 375.073 140.685C373.328 143.491 372.456 147.617 372.456 153.087V196.73H363.19V153.512C363.19 144.953 365.076 138.374 368.872 133.729C373.493 128.047 379.742 125.218 387.593 125.218C396.364 125.218 403.013 128.613 407.564 135.427C410.44 139.695 411.879 145.943 411.879 154.148V196.73V196.754Z" fill="currentColor"/>
<path d="M468.466 126.821H477.733V188.03C477.733 194.349 475.351 197.484 470.588 197.484C466.792 197.484 463.704 194.962 461.346 189.916L437.272 139.435V196.754H428.03V136.181C428.03 132.456 428.619 129.862 429.822 128.353C431.024 126.844 432.793 126.09 435.198 126.09C439.253 126.09 442.53 128.683 444.982 133.871L468.537 183.621V126.821H468.466Z" fill="currentColor"/>
<path d="M524.842 157.52H561.647C561.647 165.3 560.869 171.336 559.337 175.604C556.884 182.324 552.617 187.77 546.51 191.897C540.403 196.023 533.636 198.098 526.209 198.098C516.047 198.098 507.418 194.561 500.344 187.487C493.271 180.414 489.734 171.784 489.734 161.622C489.734 151.46 493.247 142.878 500.25 135.898C507.252 128.919 515.882 125.43 526.115 125.43C536.914 125.43 546.086 129.155 553.678 136.582L547.052 142.783C540.946 136.889 534.037 133.941 526.327 133.941C518.617 133.941 512.204 136.559 507.087 141.769C501.971 147.004 499.401 153.535 499.401 161.386C499.401 169.238 501.971 176.076 507.135 181.475C512.298 186.874 518.688 189.562 526.327 189.562C531.161 189.562 535.593 188.383 539.625 186.049C543.657 183.691 546.769 180.485 548.939 176.429C550.613 173.27 551.603 169.639 551.886 165.489H524.865V157.496L524.842 157.52Z" fill="currentColor"/>
<path d="M621.276 196.754H612.034V166.456H585.414V158.463H612.034V154.054C612.034 147.476 611.161 142.831 609.393 140.166C606.516 135.899 602.485 133.753 597.297 133.753C591.615 133.753 587.347 136.064 584.471 140.685C582.726 143.491 581.854 147.617 581.854 153.087V196.73H572.587V153.512C572.587 144.953 574.474 138.374 578.27 133.729C582.891 128.047 589.139 125.218 596.991 125.218C605.762 125.218 612.411 128.613 616.962 135.427C619.838 139.695 621.276 145.943 621.276 154.148V196.73V196.754Z" fill="currentColor"/>
<path d="M702.362 188.337V196.754H699.509C692.294 196.754 686.847 196.306 683.146 195.387C679.467 194.467 675.907 192.699 672.465 190.034C668.197 186.733 664.825 182.607 662.373 177.632C659.921 172.657 658.695 167.423 658.695 161.953C658.695 152.003 662.137 143.656 669.046 136.913C675.954 130.193 684.513 126.821 694.77 126.821H702.338V135.239H697.175C688.757 135.239 681.849 137.738 676.449 142.76C671.05 147.782 668.362 154.172 668.362 161.953C668.362 166.645 669.494 171.077 671.781 175.204C674.068 179.33 677.086 182.536 680.882 184.776C684.937 187.158 691.374 188.36 700.122 188.36H702.338L702.362 188.337Z" fill="currentColor"/>
<path d="M749.376 188.761V196.754H736.55C728.274 196.754 722.309 194.868 718.607 191.072C714.929 187.276 713.09 181.193 713.09 172.775V126.821H722.356V170.889C722.356 178.67 724.313 183.904 728.25 186.568C730.349 188.03 734.168 188.785 739.709 188.785H749.376V188.761Z" fill="currentColor"/>
<path d="M795.212 126.821H804.479V170.771C804.479 179.118 802.474 185.602 798.49 190.223C793.939 195.481 787.88 198.122 780.287 198.122C772.695 198.122 766.754 195.387 761.991 189.916C758.265 185.649 756.426 179.754 756.426 172.256V126.821H765.669V171.101C765.669 177.349 766.989 181.923 769.654 184.871C772.459 188.03 776.067 189.61 780.476 189.61C785.663 189.61 789.695 187.37 792.572 182.89C794.316 180.155 795.212 175.911 795.212 170.158V126.821Z" fill="currentColor"/>
<path d="M830.037 196.754H820.795V150.069C820.795 142.783 822.587 137.054 826.147 132.928C830.485 127.953 836.427 125.453 843.925 125.453C850.315 125.453 855.572 127.269 859.746 130.876C863.919 134.484 865.994 139.034 865.994 144.505C865.994 151.224 862.882 156.294 856.633 159.642C858.944 160.42 860.878 161.363 862.41 162.471C867.173 165.984 869.554 170.959 869.554 177.396C869.554 183.22 867.503 187.888 863.4 191.425C859.298 194.962 853.851 196.73 847.037 196.73H833.574V188.737H844.821C849.796 188.737 853.545 187.653 856.068 185.483C858.59 183.314 859.864 180.32 859.864 176.547C859.864 173.812 859.109 171.384 857.6 169.285C856.091 167.187 854.087 165.701 851.541 164.876C849.725 164.31 846.872 164.027 843.029 164.027H833.574V156.883H840.718C845.835 156.883 849.442 156.105 851.541 154.572C854.7 152.262 856.28 149.149 856.28 145.212C856.28 141.982 855.077 139.317 852.696 137.172C850.315 135.026 847.296 133.965 843.642 133.965C838.596 133.965 834.871 135.828 832.489 139.53C830.815 142.123 829.967 146.202 829.967 151.719V196.73L830.037 196.754Z" fill="currentColor"/>
<path d="M373.422 21.6386C365.241 23.1005 364.439 24.6567 360.973 35.1018C358.049 43.7314 349.302 72.2374 342.464 94.5659H339.328C333.033 77.0709 326.643 60.2361 319.688 42.5053C313.298 60.4483 306.79 78.1791 301.415 94.5659H298.279C292.219 74.383 286.16 54.7424 279.982 34.6538C276.964 24.7745 275.95 22.9826 268.547 21.6386V19.9646H300.401V21.6386C291.865 23.1005 291.535 25.1282 293.445 31.4C297.265 44.1794 301.98 59.3401 305.894 71.9073C311.27 56.6522 320.041 30.7398 323.389 20.7663H326.077C332.703 38.1434 339.54 55.096 345.93 71.813C350.528 57.2181 353.782 45.6648 357.271 33.1212C359.393 25.2697 358.733 23.3599 348.076 21.6858V20.0118H373.422V21.6858V21.6386Z" fill="currentColor"/>
<path d="M375.568 92.8686V91.0767C383.986 89.6149 384.551 88.8368 384.551 78.3916V34.3005C384.551 23.879 383.773 22.9594 375.568 21.7333V19.9414H407.54V21.7333C399.358 23.1952 398.463 23.7611 398.463 34.3005V78.2738C398.463 89.049 399.146 89.6149 407.54 91.0531V92.8451H375.568V92.8686Z" fill="currentColor"/>
<path d="M455.993 35.88C453.635 26.5666 448.259 20.955 439.606 20.955C432.886 20.955 429.066 25.5528 429.066 32.7441C429.066 39.9354 433.004 43.1657 442.647 48.8951C452.291 54.6246 460.921 60.6842 460.921 72.4497C460.921 85.347 450.027 94.5424 435.126 94.5424C429.632 94.5424 424.351 93.4107 418.197 91.8545C417.513 89.7325 415.839 76.4816 415.721 74.6896L417.513 74.3596C419.989 84.1209 426.591 91.9724 436.918 91.9724C444.652 91.9724 448.023 86.6909 448.023 79.1931C448.023 72.1196 443.874 67.0739 435.904 62.264C425.813 56.0865 417.631 50.3806 417.631 38.9216C417.631 27.4626 426.709 18.385 441.634 18.385C448.471 18.385 453.517 19.729 455.875 19.8469C456.323 23.9966 457.007 30.1741 457.785 35.5499L455.993 35.88Z" fill="currentColor"/>
<path d="M524.417 75.2556C523.851 79.1931 521.847 90.1805 521.163 92.8684H466.415V91.0765C476.058 89.7325 476.836 89.1667 476.836 79.1931V33.6401C476.836 23.5487 476.27 22.6527 468.301 21.7567V19.9648H502.301C513.288 19.9648 517.673 19.8469 518.569 19.729C518.687 23.9966 519.135 31.1644 519.701 35.9979L517.909 36.328C517.013 33.5222 515.551 29.3725 513.076 26.4488C511.048 23.9731 508.596 23.3129 501.97 23.3129H493.553C491.195 23.3129 490.747 23.7609 490.747 26.0008V52.8092H501.64C510.506 52.8092 510.836 50.3334 512.416 43.3779H514.207V65.5885H512.416C510.836 58.9631 510.506 56.1573 501.64 56.1573H490.747V80.0419C490.747 87.8934 492.421 89.3553 499.377 89.4732H506.002C512.628 89.4732 514.184 88.5772 516.99 85.5356C519.017 83.2957 520.809 79.476 522.719 74.8783L524.393 75.2084L524.417 75.2556Z" fill="currentColor"/>
</svg>
